<?xml version="1.0" standalone="no"?>
<!DOCTYPE svg PUBLIC "-//W3C//DTD SVG 20010904//EN"
 "http://www.w3.org/TR/2001/REC-SVG-20010904/DTD/svg10.dtd">
<svg version="1.0" xmlns="http://www.w3.org/2000/svg"
 width="2048.000000pt" height="589.000000pt" viewBox="0 0 2048.000000 589.000000"
 preserveAspectRatio="xMidYMid meet">

<g transform="translate(0.000000,589.000000) scale(0.100000,-0.100000)"
fill="#000000" stroke="none">
<path d="M9470 2945 c0 -2938 0 -2945 20 -2945 20 0 20 7 20 2945 0 2938 0
2945 -20 2945 -20 0 -20 -7 -20 -2945z"/>
<path d="M8290 2825 l0 -2105 85 0 85 0 0 2105 0 2105 -85 0 -85 0 0 -2105z"/>
<path d="M590 4916 c0 -2 -38 -273 -85 -603 -46 -329 -132 -938 -190 -1353
-58 -415 -132 -944 -165 -1175 -33 -231 -78 -553 -100 -715 -22 -162 -43 -307
-46 -322 l-6 -28 90 0 90 0 6 27 c14 70 81 556 145 1058 39 303 73 565 76 583
l6 32 262 -2 262 -3 56 -405 c31 -223 82 -592 114 -820 31 -228 59 -427 62
-442 5 -28 6 -28 89 -28 82 0 84 1 79 23 -2 12 -30 202 -60 422 -31 220 -64
463 -75 540 -11 77 -46 334 -79 570 -61 433 -191 1374 -302 2170 -32 237 -62
440 -64 453 -5 21 -11 22 -85 22 -44 0 -80 -2 -80 -4z m139 -986 c22 -157 74
-524 116 -817 41 -293 75 -537 75 -543 0 -7 -81 -10 -245 -10 l-245 0 5 23 c8
35 90 607 145 1012 28 204 60 433 70 510 11 77 20 144 21 150 3 38 24 -79 58
-325z"/>
<path d="M2030 2815 l0 -2105 85 0 85 0 2 1627 3 1627 68 -359 c37 -198 140
-745 227 -1215 88 -470 194 -1035 235 -1255 41 -220 75 -403 75 -407 0 -5 34
-8 75 -8 42 0 75 4 75 10 0 5 27 150 60 322 61 317 163 851 265 1388 167 880
210 1105 249 1305 l44 220 1 -1627 1 -1628 80 0 80 0 0 2105 0 2105 -75 0
c-41 0 -75 -2 -75 -4 0 -17 -258 -1370 -360 -1891 -84 -426 -198 -1021 -276
-1435 -36 -195 -67 -356 -69 -358 -4 -4 -2 -12 -120 613 -107 568 -209 1104
-321 1695 -41 217 -116 616 -167 885 l-93 490 -77 3 -77 3 0 -2106z"/>
<path d="M5020 4913 c0 -8 -59 -431 -150 -1078 -111 -785 -390 -2776 -416
-2960 -8 -60 -17 -120 -19 -132 -5 -23 -4 -23 85 -23 85 0 90 1 95 23 13 55
91 626 150 1092 36 281 67 527 71 548 l6 37 262 0 263 0 27 -192 c65 -468 206
-1493 206 -1500 0 -5 38 -8 85 -8 l86 0 -6 33 c-5 30 -97 683 -131 932 -15
112 -97 705 -401 2892 l-48 343 -82 0 c-46 0 -83 -3 -83 -7z m169 -1180 c40
-285 93 -657 117 -828 24 -170 44 -318 44 -327 0 -17 -18 -18 -240 -18 -206 0
-240 2 -240 15 0 8 24 187 54 397 30 211 83 584 117 831 34 246 65 447 68 447
4 0 39 -233 80 -517z"/>
<path d="M6275 4898 c5 -23 65 -451 240 -1698 53 -377 131 -937 175 -1245 43
-308 100 -712 126 -897 l47 -338 82 0 82 0 21 153 c30 211 177 1258 272 1937
44 311 118 840 165 1175 47 336 96 683 109 773 l23 162 -89 0 c-64 0 -88 -3
-88 -12 0 -7 -29 -224 -65 -483 -36 -258 -95 -686 -131 -950 -133 -979 -284
-2047 -292 -2068 -5 -12 -17 48 -31 150 -12 92 -45 326 -72 518 -27 193 -72
512 -99 710 -27 198 -79 572 -115 830 -36 259 -90 648 -121 865 -30 217 -57
405 -59 418 -5 21 -10 22 -95 22 -89 0 -90 0 -85 -22z"/>
<path d="M10995 4894 c-11 -2 -43 -9 -72 -15 -119 -24 -242 -144 -283 -276
-20 -64 -20 -90 -20 -1718 0 -1635 0 -1654 20 -1719 38 -123 149 -237 263
-271 64 -19 189 -19 252 0 114 34 227 150 265 272 17 56 20 93 20 254 0 119
-4 189 -10 189 -6 0 -10 -53 -10 -137 0 -76 -5 -169 -10 -208 -20 -139 -104
-260 -221 -322 -49 -25 -63 -28 -159 -28 -128 0 -176 19 -260 105 -63 64 -103
140 -119 224 -15 84 -15 3198 0 3282 23 124 103 236 211 295 60 33 67 34 168
34 96 0 110 -2 159 -28 118 -62 201 -183 221 -322 5 -38 10 -132 10 -207 0
-85 4 -138 10 -138 6 0 10 70 10 189 0 161 -3 198 -20 254 -39 126 -164 250
-277 275 -65 15 -124 21 -148 16z"/>
<path d="M12180 2890 c0 -1780 2 -2010 15 -2010 13 0 15 119 15 1015 l0 1015
385 0 385 0 0 -1015 c0 -896 2 -1015 15 -1015 13 0 15 230 15 2011 0 1604 -3
2010 -12 2007 -10 -4 -14 -211 -16 -981 l-2 -977 -383 2 -382 3 -3 978 c-2
859 -4 977 -17 977 -13 0 -15 -233 -15 -2010z"/>
<path d="M14095 4890 c-148 -22 -280 -140 -326 -290 -19 -64 -19 -95 -17
-1740 l3 -1675 33 -68 c42 -85 119 -165 197 -203 56 -27 68 -29 175 -29 105 0
120 2 170 27 108 53 179 136 219 256 21 61 21 67 21 1717 0 1650 0 1656 -21
1717 -67 201 -253 319 -454 288z m224 -64 c113 -58 202 -186 221 -317 12 -84
13 -3163 0 -3247 -19 -132 -100 -252 -212 -313 -60 -33 -67 -34 -168 -34 -96
0 -110 2 -159 28 -113 60 -200 183 -221 313 -13 80 -13 3178 0 3258 19 118 97
240 187 293 78 45 111 54 208 50 75 -3 99 -8 144 -31z"/>
<path d="M15317 4893 c-4 -3 -7 -908 -7 -2010 0 -1771 2 -2003 15 -2003 13 0
15 122 17 1012 l3 1013 210 0 c266 0 288 -6 391 -109 53 -53 77 -86 95 -131
l24 -60 3 -863 c2 -753 4 -862 17 -862 13 0 15 107 15 849 0 794 -1 853 -18
908 -35 110 -114 205 -216 259 l-55 28 50 27 c104 57 185 152 219 259 20 64
21 79 18 715 l-3 650 -32 68 c-62 131 -183 225 -318 247 -67 11 -418 14 -428
3z m529 -65 c73 -38 152 -121 188 -198 l31 -65 0 -665 0 -665 -33 -67 c-43
-88 -106 -152 -190 -191 l-67 -32 -215 0 -215 0 -3 958 -2 958 227 -3 c226 -3
229 -3 279 -30z"/>
<path d="M17126 4888 c-2 -7 -9 -65 -15 -128 -6 -63 -29 -295 -51 -515 -107
-1068 -143 -1438 -176 -1765 -31 -318 -97 -975 -143 -1433 -16 -159 -16 -167
1 -167 12 0 18 8 18 22 0 12 9 110 20 218 10 107 31 312 45 455 14 143 41 413
60 599 19 187 35 345 35 353 0 10 44 13 220 13 169 0 220 -3 220 -12 0 -15 20
-210 84 -843 47 -464 76 -762 76 -789 0 -9 7 -16 16 -16 13 0 15 8 10 48 -6
44 -90 887 -101 1017 -3 33 -39 398 -80 810 -41 413 -86 874 -100 1025 -75
783 -111 1114 -123 1118 -6 2 -14 -2 -16 -10z m33 -325 c12 -124 52 -523 145
-1448 25 -242 46 -462 48 -490 l3 -50 -209 -3 c-115 -1 -213 1 -216 5 -4 5 -1
69 6 143 8 74 32 313 54 530 21 217 63 630 92 918 29 287 55 522 59 522 3 0
12 -57 18 -127z"/>
<path d="M18177 4893 c-4 -3 -7 -908 -7 -2010 l0 -2003 390 0 c340 0 390 2
390 15 0 13 -48 15 -375 15 l-375 0 0 1995 c0 1097 -4 1995 -8 1995 -5 0 -12
-3 -15 -7z"/>
<path d="M19697 4893 c-4 -3 -7 -908 -7 -2010 l0 -2003 395 0 c343 0 395 2
395 15 0 13 -51 15 -377 17 l-378 3 -3 997 -2 998 322 2 c244 2 322 6 325 15
4 10 -67 13 -319 15 l-323 3 -3 958 -2 957 380 0 c373 0 380 0 380 20 0 20 -7
20 -388 20 -214 0 -392 -3 -395 -7z"/>
</g>
</svg>
