<?xml version="1.0" standalone="no"?>
<!DOCTYPE svg PUBLIC "-//W3C//DTD SVG 20010904//EN"
 "http://www.w3.org/TR/2001/REC-SVG-20010904/DTD/svg10.dtd">
<svg version="1.0" xmlns="http://www.w3.org/2000/svg"
 width="512.000000pt" height="512.000000pt" viewBox="0 0 512.000000 512.000000"
 preserveAspectRatio="xMidYMid meet">

<g transform="translate(0.000000,512.000000) scale(0.100000,-0.100000)"
fill="#000000" stroke="none">
<path d="M311 4198 c-29 -205 -68 -481 -86 -613 -19 -132 -66 -467 -105 -745
-38 -278 -75 -532 -80 -566 -6 -33 -10 -66 -10 -72 0 -15 76 -16 85 -2 7 11
62 393 99 695 15 116 29 222 32 238 l6 27 154 0 c85 0 154 -3 154 -7 0 -4 14
-106 30 -228 68 -485 102 -720 106 -727 3 -5 21 -8 40 -8 27 0 34 4 34 19 0
10 -50 373 -110 807 -61 434 -124 890 -141 1014 -17 124 -41 295 -53 380 l-21
155 -41 3 -41 3 -52 -373z m114 -64 c23 -156 125 -880 125 -893 0 -8 -43 -11
-146 -11 l-146 0 6 28 c10 46 136 950 136 974 0 35 11 -10 25 -98z"/>
<path d="M1180 3380 l0 -1190 40 0 40 0 1 953 c0 558 4 942 9 927 5 -14 39
-185 75 -380 37 -195 80 -425 96 -510 16 -85 43 -229 59 -320 17 -91 52 -277
78 -415 l47 -250 35 0 35 0 51 265 c28 146 81 425 118 620 128 674 167 875
180 940 12 56 14 -59 15 -882 l1 -948 40 0 40 0 0 1191 0 1190 -37 -3 -36 -3
-24 -125 c-13 -69 -84 -438 -157 -820 -148 -764 -202 -1053 -212 -1117 -4 -24
-10 -43 -13 -43 -4 0 -22 78 -39 173 -44 238 -79 424 -157 832 -37 193 -75
395 -85 450 -10 55 -41 220 -69 367 -28 147 -51 271 -51 277 0 6 -18 11 -40
11 l-40 0 0 -1190z"/>
<path d="M2876 4538 c-6 -33 -62 -431 -191 -1353 -36 -258 -81 -579 -100 -713
-19 -133 -35 -251 -35 -262 0 -17 7 -20 40 -20 24 0 42 5 45 13 7 19 60 404
97 695 l32 262 156 -2 155 -3 17 -115 c9 -63 37 -268 62 -455 60 -438 49 -395
97 -395 21 0 39 3 39 7 0 6 -164 1184 -245 1763 -13 96 -36 261 -50 365 -35
264 -29 245 -75 245 -36 0 -39 -2 -44 -32z m83 -528 c17 -118 47 -327 66 -465
19 -137 38 -265 41 -282 l5 -33 -146 0 c-80 0 -145 3 -145 8 0 4 20 151 45
327 25 176 54 385 66 465 24 176 31 218 35 205 1 -5 16 -107 33 -225z"/>
<path d="M3595 4543 c5 -23 114 -802 216 -1533 11 -80 41 -296 67 -480 l47
-335 40 0 40 0 47 330 c26 182 56 395 67 475 81 582 212 1511 216 1538 6 32 6
32 -37 32 l-43 0 -63 -458 c-180 -1301 -212 -1529 -219 -1556 -6 -20 -50 275
-147 968 -76 548 -141 1007 -144 1021 -4 22 -9 25 -48 25 -42 0 -43 -1 -39
-27z"/>
<path d="M4740 3380 l0 -1190 40 0 40 0 0 1190 0 1190 -40 0 -40 0 0 -1190z"/>
<path d="M1253 1853 c692 -2 1822 -2 2510 0 689 1 123 2 -1258 2 -1380 0
-1944 -1 -1252 -2z"/>
<path d="M218 1473 c7 -3 16 -2 19 1 4 3 -2 6 -13 5 -11 0 -14 -3 -6 -6z"/>
<path d="M865 910 c0 -316 1 -443 2 -282 l3 292 190 0 190 0 3 -292 c1 -161 2
-34 2 282 0 316 -1 450 -2 298 l-3 -278 -190 0 -190 0 -3 278 c-1 152 -2 18
-2 -298z"/>
<path d="M1768 1473 c7 -3 16 -2 19 1 4 3 -2 6 -13 5 -11 0 -14 -3 -6 -6z"/>
<path d="M2415 910 c0 -316 1 -443 2 -282 l3 293 124 -3 c68 -2 122 0 119 5
-2 4 -58 7 -123 7 l-120 0 -3 278 c-1 152 -2 18 -2 -298z"/>
<path d="M2648 1473 c7 -3 16 -2 19 1 4 3 -2 6 -13 5 -11 0 -14 -3 -6 -6z"/>
<path d="M3300 1474 c0 -4 -25 -151 -56 -328 -30 -176 -68 -397 -84 -491 -16
-93 -34 -194 -40 -224 -10 -55 -13 -98 -6 -90 2 2 21 98 41 214 19 116 38 220
41 233 4 21 8 22 114 22 61 0 110 -3 110 -7 0 -5 16 -96 35 -203 19 -107 37
-210 40 -229 4 -18 8 -31 11 -28 3 2 -11 96 -31 208 -69 403 -155 908 -155
918 0 6 -4 11 -10 11 -5 0 -10 -3 -10 -6z m64 -339 c26 -148 50 -280 53 -292
5 -23 4 -23 -106 -23 -61 0 -111 2 -111 4 0 2 13 77 29 167 16 90 39 224 52
297 12 73 26 129 30 125 4 -5 28 -129 53 -278z"/>
<path d="M3822 913 c-1 -315 1 -573 6 -573 6 0 6 410 -1 940 -1 113 -3 -53 -5
-367z"/>
<path d="M4582 913 c-1 -315 1 -573 6 -573 4 0 6 130 4 290 l-3 289 158 4 158
3 -157 2 -158 2 -3 278 c-1 152 -3 19 -5 -295z"/>
<path d="M395 1456 c53 -24 79 -62 86 -124 l6 -57 2 56 c1 43 -4 62 -20 83
-22 28 -69 56 -91 56 -7 -1 1 -7 17 -14z"/>
<path d="M1964 1446 c68 -41 65 -22 66 -538 l0 -466 -25 -30 c-13 -16 -38 -35
-55 -42 -17 -7 -29 -15 -26 -17 2 -2 22 5 44 16 75 38 72 14 72 544 0 466 0
475 -21 501 -11 14 -34 33 -49 41 -45 23 -49 17 -6 -9z"/>
<path d="M128 1437 c-14 -12 -31 -32 -37 -44 -8 -15 -11 -169 -11 -483 0 -376
3 -466 14 -488 14 -27 81 -72 107 -72 8 0 -4 9 -26 19 -22 10 -49 28 -60 41
-19 21 -20 36 -20 502 l0 480 37 34 c42 38 39 47 -4 11z"/>
<path d="M1678 1437 c-14 -12 -31 -32 -37 -44 -8 -15 -11 -169 -11 -483 0
-376 3 -466 14 -488 14 -27 81 -72 107 -72 8 0 -4 9 -26 19 -22 10 -49 28 -60
41 -19 21 -20 36 -20 502 l0 480 37 34 c42 38 39 47 -4 11z"/>
<path d="M2745 1427 l40 -35 0 -185 c0 -178 -1 -187 -23 -219 l-24 -33 31 33
31 32 0 176 c0 196 -6 222 -63 250 -31 16 -31 15 8 -19z"/>
<path d="M2710 950 c-9 -6 -10 -10 -3 -10 6 0 15 5 18 10 8 12 4 12 -15 0z"/>
<path d="M2748 866 l37 -34 5 -249 6 -248 2 238 c2 258 -1 277 -52 311 -40 25
-39 19 2 -18z"/>
<path d="M482 493 c-2 -59 -31 -102 -82 -123 -17 -7 -29 -15 -26 -17 2 -2 22
5 44 16 56 28 74 60 69 124 l-3 52 -2 -52z"/>
<path d="M228 343 c6 -2 18 -2 25 0 6 3 1 5 -13 5 -14 0 -19 -2 -12 -5z"/>
<path d="M318 343 c6 -2 18 -2 25 0 6 3 1 5 -13 5 -14 0 -19 -2 -12 -5z"/>
<path d="M1778 343 c6 -2 18 -2 25 0 6 3 1 5 -13 5 -14 0 -19 -2 -12 -5z"/>
<path d="M1868 343 c6 -2 18 -2 25 0 6 3 1 5 -13 5 -14 0 -19 -2 -12 -5z"/>
</g>
</svg>
