<svg xmlns="http://www.w3.org/2000/svg" xmlns:xlink="http://www.w3.org/1999/xlink" width="500" zoomAndPan="magnify" viewBox="0 0 375 374.999991" height="500" preserveAspectRatio="xMidYMid meet" version="1.0"><defs><clipPath id="a832aeb50e"><path d="M 3.46875 16.972656 L 374.601562 16.972656 L 374.601562 361.222656 L 3.46875 361.222656 Z M 3.46875 16.972656 " clip-rule="nonzero"/></clipPath></defs><rect x="-37.5" width="450" fill="#ffffff" y="-37.499999" height="449.999989" fill-opacity="1"/><rect x="-37.5" width="450" fill="#ffffff" y="-37.499999" height="449.999989" fill-opacity="1"/><g clip-path="url(#a832aeb50e)"><path fill="#848684" d="M 294.90625 200.875 C 296.808594 201.324219 300.769531 203.660156 302.585938 201.644531 C 301.035156 200.320312 294.257812 200.28125 294.90625 200.875 Z M 199.699219 59.441406 C 199.257812 61.308594 194.734375 59.078125 195.09375 61.746094 C 197.726562 62.53125 201.425781 60.480469 199.699219 59.441406 Z M 360.941406 175.511719 C 360.488281 172.746094 361.832031 171.789062 362.476562 170.128906 C 363.988281 170.957031 363.789062 176.503906 360.941406 175.511719 Z M 274.179688 205.488281 C 276.5 202.367188 280.015625 203.058594 283.390625 202.414062 C 280.988281 199.410156 271.117188 204.007812 268.804688 197.800781 C 272.746094 195.914062 276.773438 199.878906 281.089844 200.105469 C 282.632812 196.238281 271.796875 198.148438 270.335938 194.726562 C 293.308594 196.527344 319.640625 195.535156 334.070312 186.269531 C 335.761719 186.367188 334.394531 189.527344 334.835938 190.882812 C 338.585938 190.808594 337.09375 187.777344 337.90625 186.269531 C 340.054688 185.386719 341.898438 185.386719 344.046875 186.269531 C 345.835938 183.195312 348.929688 181.421875 353.261719 180.890625 C 354.394531 184.585938 348.847656 181.59375 349.425781 184.734375 C 352.625 185.730469 341.886719 188.683594 340.976562 193.957031 C 344.347656 193.234375 346.296875 191.082031 348.65625 189.34375 C 350.214844 190.710938 346.148438 192.941406 344.046875 193.1875 C 347.480469 195.738281 354.296875 189.371094 359.40625 188.578125 C 344.082031 209.546875 304.671875 209.984375 274.179688 205.488281 Z M 296.445312 247.765625 C 297.625 243.566406 298.984375 239.546875 300.28125 235.464844 C 301.128906 238.636719 298.835938 245.277344 296.445312 247.765625 Z M 288.765625 257.757812 C 290.933594 259.554688 290.820312 264.4375 288 266.210938 C 289.402344 263.574219 288.242188 261.511719 286.460938 260.0625 C 286.679688 259.652344 289.84375 259.296875 286.460938 258.523438 C 287.628906 254.054688 289.769531 250.558594 291.070312 246.226562 C 292.671875 251.398438 290.105469 253.8125 288.765625 257.757812 Z M 289.53125 289.273438 C 286.796875 285.851562 291.808594 278.585938 289.53125 289.273438 Z M 286.460938 279.277344 C 285.316406 276.761719 284.476562 272.753906 285.695312 270.054688 C 287.078125 271.847656 288.0625 276.925781 286.460938 279.277344 Z M 284.160156 341.542969 L 284.160156 339.234375 C 285.761719 338.914062 286.191406 339.761719 287.230469 340.007812 C 287.046875 341.355469 285.910156 341.753906 284.160156 341.542969 Z M 286.460938 298.496094 C 287.242188 299.695312 287.742188 302.636719 284.929688 303.109375 C 285.179688 301.308594 285.851562 299.929688 286.460938 298.496094 Z M 284.160156 286.195312 C 284.359375 286.867188 286.914062 295.273438 282.621094 295.421875 C 283.464844 290.691406 280.550781 290.96875 284.160156 286.195312 Z M 282.621094 276.972656 C 284.261719 279.570312 284.957031 283.890625 281.855469 285.429688 C 281.382812 281.765625 281.101562 279.957031 282.621094 276.972656 Z M 278.785156 343.082031 C 275.679688 342.878906 276.527344 339.617188 278.015625 338.464844 C 279.257812 338.25 279.339844 339.191406 280.320312 339.234375 C 280.4375 341.144531 279.921875 342.425781 278.785156 343.082031 Z M 274.179688 317.714844 C 273.960938 315.015625 275.621094 311.859375 279.550781 311.5625 C 280.113281 315.964844 275.25 314.941406 274.179688 317.714844 Z M 268.804688 316.945312 C 267.425781 315.089844 271.265625 310.179688 268.804688 306.949219 C 270.117188 304.78125 271.824219 307.238281 271.875 304.644531 C 272.554688 307.398438 270.378906 313.894531 268.804688 316.945312 Z M 278.785156 310.027344 C 277.691406 309.957031 276.609375 309.898438 276.480469 310.792969 C 273.960938 308.710938 278.582031 307.3125 278.015625 304.644531 C 281.648438 304.78125 277.742188 307.683594 278.785156 310.027344 Z M 268.035156 300.800781 C 267.765625 299.917969 266.683594 298.851562 266.5 300.035156 C 265.613281 296.566406 271.808594 293.578125 271.875 288.503906 C 272.882812 288.773438 273.082031 289.855469 274.179688 290.039062 C 274.453125 281.320312 279.980469 271.96875 281.855469 262.367188 C 282.894531 263.121094 282.847656 264.960938 284.160156 265.441406 C 280.425781 270.316406 282.386719 281.695312 275.714844 285.429688 C 277.503906 295.480469 269.359375 301.382812 266.5 309.257812 C 265.472656 307.925781 267.757812 303.378906 268.035156 300.800781 Z M 263.429688 313.867188 C 260.296875 310.941406 263.484375 303.914062 264.964844 300.800781 C 266.25 303.902344 262.992188 309.054688 263.429688 313.867188 Z M 261.894531 293.117188 C 263.199219 290.605469 266.460938 285.625 267.265625 281.585938 C 266.898438 283.96875 267.402344 292.042969 264.195312 295.421875 C 261.414062 297.074219 263.417969 290.199219 261.894531 293.117188 Z M 258.050781 305.414062 C 258.773438 302.800781 259.082031 299.78125 259.589844 296.960938 C 261.039062 297.042969 260.121094 299.5 261.894531 299.265625 C 260.921875 301.625 260.726562 304.757812 258.050781 305.414062 Z M 259.589844 321.558594 C 257.578125 320.53125 258.121094 318.144531 258.820312 316.179688 C 260.777344 316.984375 260.128906 319.652344 259.589844 321.558594 Z M 266.5 276.203125 C 268.179688 276.316406 268.144531 278.140625 268.035156 280.046875 C 266.097656 279.867188 264.855469 277.78125 266.5 276.203125 Z M 268.035156 262.367188 C 268.964844 261.929688 269.601562 257.394531 268.804688 257.757812 C 266.609375 256.863281 270.039062 256.863281 270.335938 257.757812 C 269.929688 259.910156 269.210938 261.753906 268.804688 263.90625 C 267.96875 263.71875 268.28125 262.378906 267.265625 262.367188 C 267.414062 261.492188 268.035156 261.941406 268.035156 262.367188 Z M 274.179688 237.769531 C 275.382812 238.101562 274.832031 240.1875 277.25 239.308594 C 277.347656 240.6875 276.308594 240.929688 276.480469 242.382812 C 275.765625 241.820312 275.320312 240.988281 274.945312 240.078125 C 274.292969 239.933594 274.222656 240.378906 274.179688 240.847656 C 272.265625 240.730469 273.953125 238.242188 274.179688 237.769531 Z M 278.015625 255.449219 C 276.378906 255.8125 276.554688 254.351562 276.480469 253.144531 C 274.765625 253.476562 276.171875 256.933594 275.714844 258.523438 C 272.535156 255.148438 278.046875 248.375 279.550781 244.6875 C 280.238281 247.222656 277.90625 252.839844 278.015625 255.449219 Z M 266.5 291.582031 L 268.804688 291.582031 C 269.460938 294.027344 267.59375 293.957031 267.265625 295.421875 C 265.601562 295.554688 266.921875 292.695312 266.5 291.582031 Z M 281.855469 258.523438 C 276.683594 268.460938 276.378906 283.277344 268.035156 290.039062 C 269.65625 282.019531 273.195312 275.132812 274.945312 265.441406 C 278.859375 270.53125 277.160156 259.015625 278.015625 260.832031 C 279.441406 263.179688 279.164062 257.441406 281.855469 258.523438 Z M 281.855469 253.914062 C 279.800781 252.546875 281.847656 248.84375 284.160156 249.300781 C 281.808594 253.042969 285.554688 252.449219 281.855469 253.914062 Z M 260.359375 201.644531 C 262.890625 199.582031 269.367188 202.871094 273.410156 203.949219 C 269.589844 205.703125 263.429688 203.195312 260.359375 201.644531 Z M 311.800781 140.152344 C 312.671875 138.460938 314.367188 137.597656 314.871094 135.539062 C 316.15625 136.378906 314.941406 141.191406 311.800781 140.152344 Z M 304.890625 79.421875 C 311.527344 67.898438 317.828125 55.472656 326.386719 47.140625 C 334.488281 39.257812 345.363281 31.726562 354.796875 28.691406 C 324.570312 75.554688 309.34375 137.433594 284.929688 190.113281 C 274.398438 192.136719 261.09375 190.441406 251.910156 188.578125 C 266.015625 151.710938 285.332031 113.390625 304.890625 79.421875 Z M 215.824219 250.839844 C 215.734375 247.734375 219.183594 243.601562 219.664062 240.078125 C 216.773438 243.585938 213.6875 246.910156 209.679688 249.300781 C 213.582031 240.785156 215.242188 231.8125 221.195312 222.398438 C 219.726562 220.480469 218.253906 225.035156 215.824219 224.703125 C 217.152344 219.371094 220.507812 216.066406 222.734375 211.636719 C 223.777344 211.875 223.375 213.558594 223.503906 214.710938 C 232.207031 201.519531 235.890625 186.609375 245 177.042969 C 243.144531 172.421875 246.773438 167.183594 250.375 165.515625 C 250.59375 166.757812 249.648438 166.839844 249.609375 167.824219 C 252.65625 164.722656 252.488281 158.402344 255.75 155.523438 C 254.320312 155.632812 253.183594 156.03125 252.679688 157.0625 C 251.203125 156.972656 253.578125 154.484375 252.679688 152.445312 C 255.144531 151.773438 254.269531 154.441406 255.75 154.757812 C 257.796875 154.242188 258.5625 152.445312 259.589844 150.910156 C 248.632812 186.636719 236.8125 220.730469 215.824219 250.839844 Z M 200.464844 272.363281 C 198.851562 274.242188 201.480469 270.058594 202.769531 270.054688 C 202.984375 265.914062 207.160156 265.742188 207.378906 261.601562 C 208.90625 260.824219 210.660156 260.273438 211.21875 258.523438 C 209.902344 262.34375 204.75 268.953125 200.464844 272.363281 Z M 215.824219 230.851562 C 213.515625 232.128906 213.089844 235.289062 211.21875 237.003906 C 210.40625 234.125 214.03125 229.070312 215.824219 226.242188 C 218.539062 227.078125 213.109375 230.011719 215.824219 230.851562 Z M 120.617188 342.3125 C 106.511719 349.765625 89.285156 355.957031 70.707031 351.535156 C 57.910156 348.488281 44.105469 339.378906 35.386719 330.011719 C 13.871094 306.890625 14.113281 258.308594 27.707031 228.546875 C 40.269531 201.054688 64.632812 174.832031 95.273438 169.359375 C 116.261719 165.609375 135.492188 174.570312 145.722656 187.074219 C 134.5625 195.324219 115.65625 209.230469 118.3125 230.851562 C 120.5625 249.1875 141.273438 241.679688 149.023438 230.851562 C 156.90625 219.84375 158.617188 203.265625 159.007812 191.652344 C 175.824219 181.59375 207.84375 188.925781 224.269531 195.496094 C 201.859375 246.488281 169.695312 316.363281 120.617188 342.3125 Z M 30.78125 194.726562 C 32.320312 194.988281 33.183594 194.570312 33.082031 193.1875 C 36.546875 194.0625 29.738281 196.660156 30.011719 199.339844 C 27.523438 198.007812 32.007812 197.324219 30.78125 194.726562 Z M 52.277344 179.351562 C 57.015625 181.613281 58.183594 175.5 62.257812 174.742188 C 58.488281 178.503906 55.511719 182.75 52.277344 183.195312 C 52.5625 181.886719 51.679688 181.742188 50.742188 181.660156 C 51.246094 180.878906 52.507812 180.859375 52.277344 179.351562 Z M 81.457031 168.59375 C 74.378906 173.542969 65.679688 178.339844 58.421875 180.890625 C 63.765625 174.453125 72.839844 171.75 81.457031 168.59375 Z M 61.492188 170.128906 C 61.40625 171.582031 58.957031 170.664062 59.191406 172.433594 C 66.789062 170.5625 70.097656 164.394531 79.152344 163.980469 C 73.671875 171.835938 67.234375 169.277344 59.960938 174.742188 C 59.273438 174.402344 58.582031 174.0625 58.421875 173.203125 C 57.285156 173.855469 56.773438 175.136719 56.886719 177.042969 C 56.285156 174.671875 51.777344 173.492188 51.511719 177.042969 C 50.152344 173.105469 58.042969 171.8125 61.492188 170.128906 Z M 92.203125 163.980469 C 90.382812 165.226562 87.554688 165.472656 85.296875 166.285156 C 86.285156 164.199219 89.109375 163.957031 92.203125 163.980469 Z M 95.273438 161.675781 C 96.167969 161.796875 96.644531 161.503906 96.8125 160.90625 C 100.558594 162.535156 107.453125 161.011719 110.632812 163.210938 C 107.492188 166.496094 104.832031 163.265625 99.886719 164.75 C 100.121094 163.703125 101.804688 164.109375 102.957031 163.980469 C 102.296875 162.078125 97.613281 164.203125 96.8125 162.441406 L 88.367188 162.441406 C 89.183594 160.699219 93.191406 162.148438 95.273438 161.675781 Z M 147.488281 181.660156 C 142.03125 177.125 131.457031 171.066406 122.152344 167.824219 C 133.292969 166.664062 141.667969 174.929688 147.488281 181.660156 Z M 143.648438 231.621094 C 141.511719 230.167969 145.109375 228.019531 145.183594 226.242188 C 147.582031 227.953125 143.675781 229.792969 143.648438 231.621094 Z M 133.210938 229.183594 C 122.425781 225.136719 138.148438 199.976562 148.253906 197.03125 C 153.25 206.609375 143.996094 233.234375 133.210938 229.183594 Z M 317.941406 155.523438 C 317.949219 153.480469 317.65625 151.132812 318.710938 150.144531 C 321.589844 149.730469 319.792969 155.777344 317.941406 155.523438 Z M 350.191406 160.136719 C 348.195312 174.390625 329.941406 180.339844 319.476562 183.195312 C 323.28125 169.066406 327.117188 154.96875 331.761719 141.6875 C 345.097656 139.988281 351.625 149.90625 350.191406 160.136719 Z M 357.871094 182.425781 C 356.253906 184.351562 351.480469 190.605469 350.191406 187.808594 C 354.050781 187.3125 354.011719 182.921875 357.871094 182.425781 Z M 250.375 57.90625 C 252.242188 54.6875 260.160156 51.800781 261.125 57.90625 C 259.449219 58.621094 254.234375 57.429688 250.375 57.90625 Z M 252.679688 70.96875 C 253.464844 69.191406 256.210938 69.378906 258.820312 69.433594 C 258.035156 71.210938 255.292969 71.019531 252.679688 70.96875 Z M 227.339844 70.96875 C 224.234375 71.480469 226 73.277344 225.039062 74.8125 C 210.683594 68.425781 192.9375 65.4375 183.578125 54.058594 C 190.855469 53.660156 199.730469 54.859375 201.234375 48.675781 C 204.742188 47.832031 209.148438 47.890625 210.449219 44.835938 C 214.453125 45.4375 220.152344 44.34375 221.96875 47.140625 C 219.15625 46.613281 212.460938 46.828125 208.914062 47.90625 C 217.851562 49.441406 228.164062 47.78125 236.554688 50.214844 C 236.128906 52.605469 232.332031 51.628906 232.714844 54.824219 C 236.117188 55.316406 243.308594 54.421875 248.074219 55.59375 C 245.949219 56.542969 243.960938 57.628906 241.164062 57.90625 C 241.308594 57.28125 241.929688 57.136719 241.929688 56.367188 C 239.027344 57.046875 235.339844 56.9375 233.480469 58.667969 C 233.496094 60.964844 239.175781 57.585938 238.089844 60.976562 C 235.351562 61.054688 232.820312 61.335938 231.949219 63.285156 C 235.957031 64.714844 241.449219 61.023438 246.539062 60.976562 C 243.503906 65.113281 236.535156 65.3125 233.480469 69.433594 C 240.296875 68.570312 245 65.589844 249.609375 62.515625 C 250.351562 63.820312 251.730469 64.484375 254.214844 64.054688 C 252.316406 68.042969 245.480469 67.09375 241.929688 69.433594 C 242.472656 70.421875 246.339844 68.867188 246.539062 70.199219 C 242.488281 74.914062 232.230469 74.472656 227.339844 70.96875 Z M 233.480469 75.578125 C 226.058594 77.410156 224.035156 73.171875 233.480469 75.578125 Z M 185.109375 52.519531 C 188.199219 47.679688 195.910156 50.746094 199.699219 48.675781 C 196.300781 53.726562 186.898438 52.773438 178.96875 53.292969 C 179.269531 50.632812 184.027344 50.195312 185.109375 52.519531 Z M 174.363281 43.296875 C 176.292969 41.128906 180.050781 40.792969 184.34375 40.992188 C 184.910156 43.609375 181.515625 42.257812 181.269531 44.066406 C 180.324219 43.730469 179.695312 43.082031 179.738281 41.761719 C 178.835938 41.882812 179.089844 43.160156 178.96875 44.066406 C 177.160156 44.082031 176.710938 42.746094 174.363281 43.296875 Z M 191.253906 42.527344 C 189.648438 43.742188 187.214844 44.121094 184.34375 44.066406 C 185.933594 42.300781 188.601562 41.15625 191.253906 42.527344 Z M 206.609375 43.296875 C 207.019531 44.402344 203.617188 45.171875 205.839844 45.601562 C 200.703125 47.902344 195.503906 47.03125 188.949219 47.90625 C 193.636719 45.171875 197.894531 42.003906 206.609375 43.296875 Z M 165.148438 87.113281 C 165.046875 81.375 166.414062 77.101562 171.292969 76.347656 C 170.800781 80.328125 172.882812 77.496094 175.128906 77.886719 C 174.804688 79.492188 175.65625 79.921875 175.898438 80.964844 C 181.539062 80.179688 182.878906 83.703125 186.648438 84.804688 C 184.71875 86.449219 178.746094 82.332031 176.667969 84.035156 C 179.128906 86.441406 183.371094 87.0625 187.414062 87.882812 C 186.84375 89.617188 183.105469 88.179688 181.269531 88.652344 C 182.078125 92.378906 185.210938 89.210938 187.414062 90.957031 C 184.386719 94.246094 184.769531 96.390625 180.503906 97.871094 C 180.910156 98.492188 181.304688 99.121094 181.269531 100.175781 C 184.039062 100.644531 183.535156 97.832031 185.878906 97.871094 C 185.351562 100.417969 183.214844 101.359375 180.503906 101.71875 C 177.019531 95.210938 169.792969 92.453125 165.148438 87.113281 Z M 185.109375 80.191406 C 183.058594 82.691406 181.296875 78.429688 178.96875 78.65625 C 181.058594 76.117188 182.921875 80.28125 185.109375 80.191406 Z M 189.71875 90.957031 C 191.414062 91.050781 190.046875 94.214844 190.484375 95.566406 C 186.914062 95.835938 188.375 91.957031 189.71875 90.957031 Z M 334.070312 135.539062 C 338.707031 117.59375 344.574219 98.910156 350.191406 80.191406 C 355.78125 61.558594 361.167969 43.601562 368.335938 28.136719 C 370.046875 24.355469 370.992188 22.035156 374.605469 17.898438 C 367.566406 15.339844 361.414062 18.628906 355.566406 21.003906 C 338.507812 27.9375 326.472656 36.886719 311.03125 43.296875 C 301.929688 47.074219 290.992188 50.921875 278.785156 51.75 C 244.910156 54.058594 220.683594 30.792969 188.179688 29.460938 C 166.550781 28.578125 153.214844 36.339844 140.578125 41.761719 C 135.613281 46.121094 131.9375 49.828125 129.058594 53.292969 C 115.421875 69.699219 113.4375 99.988281 124.453125 116.324219 C 131.671875 127.019531 149.878906 134.992188 166.683594 132.464844 C 182.351562 130.105469 196.921875 119.046875 198.933594 103.25 C 201.273438 84.84375 185.3125 66.246094 168.984375 72.503906 C 166.007812 73.652344 159.566406 80.484375 161.308594 87.882812 C 163.035156 95.210938 177.332031 96.09375 178.199219 107.097656 C 178.570312 111.722656 177.035156 113.234375 175.128906 118.628906 C 150.5 131.742188 121.660156 111.976562 122.917969 86.34375 C 123.773438 68.890625 141.253906 57.257812 156.703125 55.59375 C 186.433594 52.390625 197.730469 78.371094 228.878906 81.734375 C 265.320312 85.664062 283.222656 72.566406 304.121094 59.441406 C 275.324219 95.945312 254.722656 140.660156 231.179688 182.425781 C 207.421875 176.546875 174.773438 172.210938 152.863281 182.425781 C 139.734375 158.4375 101.703125 153.332031 71.476562 160.90625 C 55.796875 164.835938 44 174.621094 33.851562 185.503906 C 22.746094 197.40625 18.785156 205.269531 13.121094 219.324219 C -0.425781 252.949219 -1.921875 299.457031 23.101562 329.242188 C 29.023438 334.585938 33.191406 338.710938 41.53125 344.613281 C 58.203125 353.304688 76.242188 361.90625 98.347656 359.21875 C 118.347656 356.789062 132.105469 344.742188 148.253906 333.855469 C 193.597656 303.289062 223.46875 252.324219 245.765625 203.949219 C 256.824219 205.949219 268.867188 206.960938 278.785156 210.097656 C 273.691406 230.949219 265.546875 250.625 260.359375 272.363281 C 256.210938 289.726562 250.800781 308.816406 251.910156 326.9375 C 253.335938 350.257812 267.027344 369.378906 292.605469 357.683594 C 324.417969 343.140625 345.550781 297.859375 362.113281 269.609375 C 363.59375 266.683594 361.789062 265.238281 360.296875 267.875 C 351.316406 279.910156 344.15625 292.4375 334.070312 303.875 C 324.582031 314.628906 308.199219 333.75 295.675781 330.011719 C 287.253906 323.703125 288.980469 310.5 290.300781 300.035156 C 294.445312 267.25 303.828125 235.445312 311.800781 211.636719 C 338.230469 210.214844 362.320312 200.359375 371.691406 179.351562 C 380.199219 151.367188 360.1875 136.089844 334.070312 135.539062 Z M 286.460938 202.414062 C 287.066406 200.710938 291.21875 202.558594 290.300781 199.339844 C 287.515625 198.402344 283.941406 200.574219 286.460938 202.414062 Z M 231.949219 71.738281 C 234.433594 71.40625 238.589844 72.746094 238.859375 70.199219 C 236.484375 70.175781 230.882812 70.871094 231.949219 71.738281 Z M 198.164062 57.136719 C 197.808594 53.671875 192.824219 54.828125 191.253906 56.367188 C 192.527344 57.652344 195.761719 56.976562 198.164062 57.136719 " fill-opacity="1" fill-rule="evenodd"/></g></svg>